<?xml version="1.0" standalone="no"?>
<!DOCTYPE svg PUBLIC "-//W3C//DTD SVG 20010904//EN"
 "http://www.w3.org/TR/2001/REC-SVG-20010904/DTD/svg10.dtd">
<svg version="1.0" xmlns="http://www.w3.org/2000/svg"
 width="325.000000pt" height="324.000000pt" viewBox="0 0 325.000000 324.000000"
 preserveAspectRatio="xMidYMid meet">

<g transform="translate(0.000000,324.000000) scale(0.100000,-0.100000)"
fill="#000000" stroke="none">
<path d="M0 2650 l0 -590 326 0 c358 0 327 6 309 -57 -3 -13 -14 -23 -24 -23
-15 0 -23 -22 -47 -131 -15 -73 -30 -126 -32 -119 -3 7 -16 65 -31 129 l-26
116 -73 3 -72 3 2 -218 3 -218 43 -3 42 -3 1 63 c1 35 4 90 8 123 l6 59 27
-112 c18 -70 35 -119 48 -132 11 -11 20 -16 20 -11 0 5 10 11 23 15 19 4 27
22 54 123 l31 118 2 -90 c1 -49 5 -103 9 -120 6 -27 10 -30 46 -30 l40 0 3
218 2 217 -51 0 c-37 0 -50 4 -47 13 3 6 49 189 103 405 l97 393 131 -3 131
-3 95 -380 c52 -209 97 -372 99 -362 3 16 58 17 978 17 l974 0 0 590 0 590
-1625 0 -1625 0 0 -590z m1728 65 c50 -20 87 -62 101 -112 6 -20 9 -38 8 -40
-2 -1 -42 -6 -90 -9 -73 -6 -87 -5 -87 8 0 8 -9 24 -20 36 -25 26 -100 31
-120 7 -24 -29 -7 -49 55 -68 167 -51 192 -60 222 -83 69 -52 80 -164 23 -242
-40 -56 -105 -84 -203 -90 -171 -10 -268 47 -297 175 l-8 31 83 7 c88 8 105 4
105 -23 2 -65 118 -98 159 -46 12 15 21 31 21 36 0 25 -52 55 -130 76 -104 28
-157 56 -188 102 -20 29 -23 44 -20 93 4 49 9 62 39 93 55 57 110 75 224 70
44 -2 99 -11 123 -21z m-1018 -60 l0 -75 -95 0 -95 0 0 -225 0 -225 -90 0 -90
0 0 225 0 225 -95 0 -95 0 0 75 0 75 280 0 280 0 0 -75z m1432 -35 l3 -110 94
110 93 110 119 0 c65 0 119 -3 119 -7 0 -4 -47 -55 -105 -113 l-105 -106 114
-187 115 -188 -116 3 -115 3 -62 117 -62 117 -47 -47 -47 -48 0 -72 0 -72 -95
0 -95 0 0 300 0 300 95 0 94 0 3 -110z m825 -70 c36 -16 83 -68 83 -91 0 -3
-34 -9 -76 -13 -70 -6 -78 -5 -91 13 -17 26 -84 29 -103 5 -22 -25 6 -40 108
-57 107 -17 153 -45 172 -102 23 -70 -33 -152 -122 -176 -64 -17 -205 -7 -254
17 -38 20 -86 86 -72 99 4 4 39 10 79 13 70 7 74 6 100 -20 43 -43 127 -31
118 17 -4 20 -19 26 -133 50 -60 13 -86 24 -113 48 -68 63 -49 157 40 197 31
15 65 20 132 20 67 0 101 -5 132 -20z"/>
<path d="M966 2393 c-10 -34 -76 -320 -76 -329 0 -5 36 -8 79 -6 l80 3 10 -33
c5 -18 10 -27 10 -19 1 15 -88 393 -94 399 -2 2 -6 -5 -9 -15z"/>
<path d="M881 2024 c0 -11 3 -14 6 -6 3 7 2 16 -1 19 -3 4 -6 -2 -5 -13z"/>
<path d="M1301 2004 c0 -11 3 -14 6 -6 3 7 2 16 -1 19 -3 4 -6 -2 -5 -13z"/>
<path d="M862 1948 c-7 -28 -11 -53 -8 -55 2 -2 9 19 16 47 7 28 10 53 8 55
-3 3 -10 -18 -16 -47z"/>
<path d="M1071 1974 c0 -11 3 -14 6 -6 3 7 2 16 -1 19 -3 4 -6 -2 -5 -13z"/>
<path d="M1311 1964 c0 -11 3 -14 6 -6 3 7 2 16 -1 19 -3 4 -6 -2 -5 -13z"/>
<path d="M1080 1934 c0 -10 5 -26 10 -34 8 -11 9 -7 4 15 -8 37 -14 45 -14 19z"/>
<path d="M1321 1924 c0 -11 3 -14 6 -6 3 7 2 16 -1 19 -3 4 -6 -2 -5 -13z"/>
<path d="M1331 1884 c0 -11 3 -14 6 -6 3 7 2 16 -1 19 -3 4 -6 -2 -5 -13z"/>
<path d="M1425 1858 c-2 -7 -5 -79 -7 -161 l-3 -147 32 -6 c18 -3 44 -3 57 0
23 6 24 10 28 111 2 83 7 108 21 122 13 14 21 15 35 7 14 -9 17 -30 20 -120 3
-116 6 -124 57 -124 55 0 57 6 53 143 -3 121 -4 128 -29 153 -33 32 -95 42
-137 21 -26 -12 -32 -13 -36 -1 -7 18 -85 19 -91 2z"/>
<path d="M1853 1863 c-25 -5 -83 -66 -83 -88 0 -8 15 -17 36 -21 29 -5 38 -3
51 15 11 16 23 21 46 19 43 -4 50 -35 10 -44 -126 -28 -153 -47 -153 -105 0
-48 35 -88 77 -90 44 -2 77 2 94 12 12 6 21 4 30 -7 8 -10 26 -14 53 -12 l41
3 -4 130 c-2 71 -8 137 -15 147 -24 39 -103 57 -183 41z m87 -203 c0 -21 -35
-41 -57 -33 -19 8 -16 41 5 46 39 10 52 7 52 -13z"/>
<path d="M2151 1853 c-148 -73 -66 -347 91 -302 38 10 38 10 27 -18 -9 -24
-45 -31 -77 -14 -9 4 -36 11 -59 15 -39 6 -43 4 -43 -15 0 -33 19 -60 55 -75
44 -18 126 -18 170 0 58 24 65 52 65 251 l0 175 -40 0 c-26 0 -43 -5 -46 -14
-5 -12 -9 -12 -32 0 -35 18 -69 17 -111 -3z m104 -79 c24 -25 17 -122 -11
-140 -17 -12 -23 -12 -40 0 -15 11 -19 27 -19 69 0 77 32 109 70 71z"/>
<path d="M2504 1851 c-94 -43 -112 -195 -33 -268 63 -58 212 -42 249 26 12 24
5 29 -54 37 -29 4 -46 3 -46 -3 0 -18 -44 -23 -67 -7 -13 8 -23 19 -23 24 0 5
44 11 98 12 l97 3 3 33 c5 53 -32 117 -82 141 -52 26 -89 26 -142 2z m100 -77
c26 -25 19 -34 -29 -34 -25 0 -45 4 -45 9 0 14 30 41 45 41 7 0 21 -7 29 -16z"/>
<path d="M2772 1708 l3 -163 43 -3 c50 -4 49 -5 56 109 7 111 10 119 53 119
30 0 36 5 49 35 8 20 12 40 9 45 -10 16 -75 23 -101 11 -15 -6 -24 -7 -24 -1
0 6 -20 10 -45 10 l-45 0 2 -162z"/>
<path d="M1341 1844 c0 -11 3 -14 6 -6 3 7 2 16 -1 19 -3 4 -6 -2 -5 -13z"/>
<path d="M1351 1804 c0 -11 3 -14 6 -6 3 7 2 16 -1 19 -3 4 -6 -2 -5 -13z"/>
<path d="M1361 1764 c0 -11 3 -14 6 -6 3 7 2 16 -1 19 -3 4 -6 -2 -5 -13z"/>
<path d="M1371 1724 c0 -11 3 -14 6 -6 3 7 2 16 -1 19 -3 4 -6 -2 -5 -13z"/>
<path d="M1381 1684 c0 -11 3 -14 6 -6 3 7 2 16 -1 19 -3 4 -6 -2 -5 -13z"/>
<path d="M1391 1644 c0 -11 3 -14 6 -6 3 7 2 16 -1 19 -3 4 -6 -2 -5 -13z"/>
<path d="M970 1630 l184 -5 12 -45 c7 -25 12 -38 13 -30 0 8 -4 32 -10 53
l-10 37 -187 -2 -187 -2 185 -6z"/>
<path d="M781 1604 c0 -11 3 -14 6 -6 3 7 2 16 -1 19 -3 4 -6 -2 -5 -13z"/>
<path d="M1401 1604 c0 -11 3 -14 6 -6 3 7 2 16 -1 19 -3 4 -6 -2 -5 -13z"/>
<path d="M756 1504 c-10 -41 -16 -77 -14 -80 3 -2 12 30 22 72 10 41 16 77 14
80 -3 2 -12 -30 -22 -72z"/>
<path d="M1421 1524 c0 -11 3 -14 6 -6 3 7 2 16 -1 19 -3 4 -6 -2 -5 -13z"/>
<path d="M1181 1514 c0 -11 3 -14 6 -6 3 7 2 16 -1 19 -3 4 -6 -2 -5 -13z"/>
<path d="M511 1494 c0 -11 3 -14 6 -6 3 7 2 16 -1 19 -3 4 -6 -2 -5 -13z"/>
<path d="M1431 1484 c0 -11 3 -14 6 -6 3 7 2 16 -1 19 -3 4 -6 -2 -5 -13z"/>
<path d="M1191 1474 c0 -11 3 -14 6 -6 3 7 2 16 -1 19 -3 4 -6 -2 -5 -13z"/>
<path d="M501 1454 c0 -11 3 -14 6 -6 3 7 2 16 -1 19 -3 4 -6 -2 -5 -13z"/>
<path d="M1441 1444 c0 -11 3 -14 6 -6 3 7 2 16 -1 19 -3 4 -6 -2 -5 -13z"/>
<path d="M1201 1442 c-1 -7 6 -42 15 -77 l16 -65 124 0 c122 0 124 0 123 23
-1 16 -2 18 -6 5 -4 -16 -18 -18 -118 -18 l-114 0 -10 38 c-22 83 -29 106 -30
94z"/>
<path d="M491 1414 c0 -11 3 -14 6 -6 3 7 2 16 -1 19 -3 4 -6 -2 -5 -13z"/>
<path d="M1451 1404 c0 -11 3 -14 6 -6 3 7 2 16 -1 19 -3 4 -6 -2 -5 -13z"/>
<path d="M731 1394 c0 -11 3 -14 6 -6 3 7 2 16 -1 19 -3 4 -6 -2 -5 -13z"/>
<path d="M481 1374 c0 -11 3 -14 6 -6 3 7 2 16 -1 19 -3 4 -6 -2 -5 -13z"/>
<path d="M1461 1364 c0 -11 3 -14 6 -6 3 7 2 16 -1 19 -3 4 -6 -2 -5 -13z"/>
<path d="M717 1343 l-6 -32 -123 -4 -123 -3 122 -2 c114 -2 123 -1 133 19 6
11 10 28 8 37 -2 10 -7 4 -11 -15z"/>
<path d="M471 1334 c0 -11 3 -14 6 -6 3 7 2 16 -1 19 -3 4 -6 -2 -5 -13z"/>
<path d="M0 520 l0 -520 1625 0 1625 0 0 520 0 520 -1625 0 -1625 0 0 -520z
m1122 270 c33 -10 68 -41 68 -62 0 -4 -16 -10 -35 -14 -27 -5 -41 -2 -56 12
-50 45 -114 -41 -78 -104 12 -22 22 -27 54 -27 22 0 40 5 43 13 2 7 -6 12 -22
12 -22 0 -26 4 -26 30 l0 30 65 0 65 0 0 -55 c0 -54 -1 -55 -40 -75 -47 -24
-128 -27 -169 -5 -16 8 -36 30 -45 49 -40 85 1 183 85 199 42 8 53 7 91 -3z
m956 0 c22 0 14 -38 -10 -42 -28 -4 -36 -28 -9 -28 29 0 29 -45 1 -53 -17 -4
-20 -14 -20 -71 l0 -66 -35 0 -35 0 0 70 c0 56 -3 70 -15 70 -9 0 -15 9 -15
25 0 15 6 25 14 25 9 0 16 12 18 27 3 31 41 56 73 48 11 -2 26 -5 33 -5z m334
0 c33 -10 68 -41 68 -61 0 -4 -14 -11 -32 -14 -22 -5 -35 -3 -42 7 -15 19 -40
28 -56 18 -20 -12 -4 -27 46 -39 90 -23 120 -87 65 -142 -26 -26 -36 -29 -91
-29 -51 0 -65 4 -85 25 -14 13 -25 33 -25 45 0 29 65 29 80 -1 15 -27 65 -23
65 6 0 14 -11 22 -41 31 -61 18 -84 32 -95 61 -14 36 8 75 51 90 44 15 47 15
92 3z m-1538 -123 c25 -68 46 -126 46 -130 0 -4 -18 -7 -39 -7 -31 0 -41 4
-46 20 -5 16 -15 20 -55 20 -39 0 -49 -3 -53 -20 -4 -16 -14 -20 -46 -20 -40
0 -40 0 -30 28 6 15 24 61 39 102 53 142 45 130 93 130 l44 0 47 -123z m596
101 c-1 -14 -28 -53 -70 -98 l-69 -75 70 -3 69 -3 0 -30 0 -30 -122 3 c-119 3
-123 4 -126 26 -3 17 15 42 69 97 l72 75 -61 0 -62 0 0 30 0 30 115 0 c113 0
115 0 115 -22z m741 -48 c27 0 26 -46 -1 -53 -15 -4 -20 -14 -20 -42 0 -28 5
-38 20 -42 13 -3 20 -14 20 -29 0 -21 -5 -24 -39 -24 -55 0 -71 20 -71 86 0
41 -4 54 -15 54 -9 0 -15 9 -15 25 0 16 6 25 15 25 8 0 15 8 15 18 0 11 13 25
33 34 l32 15 3 -33 c2 -26 8 -34 23 -34z m399 -60 l0 -130 -40 0 -40 0 0 130
0 130 40 0 40 0 0 -130z m-961 50 c10 -5 22 -17 25 -26 6 -15 0 -16 -54 -10
-71 8 -84 -9 -15 -20 31 -4 52 -14 65 -32 26 -32 25 -38 -5 -67 -19 -20 -34
-25 -77 -25 -56 0 -98 20 -98 46 0 17 52 19 79 2 20 -12 56 -4 47 11 -4 5 -25
12 -47 16 -110 19 -100 115 12 115 28 0 58 -4 68 -10z m245 -16 c38 -38 36
-95 -3 -135 -65 -64 -181 -21 -181 67 0 59 39 94 106 94 42 0 56 -5 78 -26z
m-1216 -296 c21 -21 13 -30 -18 -23 -27 6 -30 4 -30 -20 0 -24 3 -26 30 -20
31 7 39 -2 18 -23 -28 -28 -88 0 -88 41 0 44 59 74 88 45z m512 -47 c-15 -61
-32 -69 -19 -8 13 56 18 71 25 64 4 -3 1 -29 -6 -56z m144 46 c21 -16 24 -60
6 -82 -7 -8 -28 -15 -46 -15 l-34 0 0 55 c0 54 1 55 28 55 16 0 36 -6 46 -13z
m166 -43 c0 -40 -4 -55 -12 -52 -14 5 -23 70 -14 94 12 32 26 11 26 -42z m800
41 c0 -8 -7 -15 -15 -15 -11 0 -15 -11 -15 -41 0 -33 -3 -40 -17 -37 -13 2
-19 14 -21 41 -2 24 -8 37 -18 37 -8 0 -14 7 -14 15 0 11 12 15 50 15 38 0 50
-4 50 -15z m231 -16 c4 -13 7 -18 8 -11 1 6 11 12 22 12 18 0 19 -3 10 -14 -9
-11 -9 -20 -2 -35 15 -26 14 -31 -4 -31 -9 0 -18 7 -21 15 -6 14 -8 13 -20 -2
-10 -14 -15 -15 -25 -6 -9 9 -16 9 -25 2 -7 -6 -23 -9 -36 -7 -19 2 -23 9 -23
38 0 37 19 49 53 34 14 -6 13 -8 -8 -14 l-25 -6 28 -6 c24 -5 27 -2 27 22 0
47 29 53 41 9z m-1524 6 c12 -13 13 -18 2 -31 -9 -11 -9 -18 -1 -26 18 -18 15
-28 -8 -28 -23 0 -42 55 -28 83 11 21 15 21 35 2z m651 -2 c12 -12 13 -18 4
-21 -14 -4 -16 -42 -2 -42 6 0 10 -5 10 -11 0 -6 -10 -9 -22 -7 -16 2 -24 12
-29 38 -5 20 -3 40 3 47 13 17 16 16 36 -4z m-814 -26 c8 -13 8 -20 -2 -26 -8
-4 -13 -12 -12 -17 2 -14 -40 -17 -56 -4 -7 7 -14 21 -14 32 0 10 -4 16 -10
13 -5 -3 -10 -17 -10 -31 0 -15 -6 -24 -15 -24 -11 0 -15 11 -15 39 l0 38 61
-1 c48 -1 64 -5 73 -19z m94 11 c7 -7 12 -24 12 -39 0 -24 -3 -27 -40 -27 -43
-1 -58 11 -41 32 6 7 8 16 5 19 -11 11 7 27 30 27 12 0 27 -5 34 -12z m166
-11 c8 -13 8 -20 -2 -26 -8 -4 -12 -12 -10 -17 5 -14 -41 -17 -58 -4 -17 15
-18 42 -2 58 17 17 59 11 72 -11z m346 3 c11 -21 9 -24 -35 -33 -14 -3 -12 -5
8 -6 33 -1 27 -21 -7 -21 -26 0 -46 17 -46 40 0 40 61 55 80 20z m144 -3 c8
-13 8 -20 -2 -26 -8 -4 -12 -12 -10 -17 5 -14 -41 -17 -58 -4 -17 15 -18 42
-2 58 17 17 59 11 72 -11z m160 0 c8 -13 8 -20 -2 -26 -8 -4 -12 -12 -10 -17
5 -14 -41 -17 -58 -4 -17 15 -18 42 -2 58 17 17 59 11 72 -11z m95 1 l8 -23 7
23 c4 12 14 22 22 22 18 0 18 1 -6 -54 -20 -47 -40 -64 -60 -51 -8 5 -6 11 6
19 15 12 15 15 0 44 -20 38 -20 42 -1 42 9 0 19 -10 24 -22z m135 0 c14 -23
-3 -52 -33 -56 -42 -6 -67 38 -39 66 17 17 58 11 72 -10z m54 -11 c4 -34 22
-25 22 9 0 16 5 24 13 22 6 -3 12 -20 12 -39 0 -31 -3 -34 -33 -36 -26 -2 -35
2 -44 21 -12 28 -4 60 15 54 6 -3 13 -17 15 -31z m118 14 c-9 -10 -16 -27 -16
-39 0 -13 -6 -22 -15 -22 -11 0 -15 11 -15 38 0 37 2 39 31 40 29 1 30 0 15
-17z m232 -22 c3 -36 3 -37 -37 -37 -41 -1 -65 23 -35 35 12 4 12 8 4 13 -21
13 1 31 33 28 29 -3 32 -7 35 -39z m277 31 c3 -6 -4 -10 -17 -11 l-23 0 23
-10 c34 -13 25 -44 -13 -44 -25 0 -30 4 -32 25 -1 14 0 31 2 38 5 14 51 16 60
2z"/>
<path d="M778 704 c-3 -5 -9 -24 -13 -41 -6 -31 -5 -33 19 -33 29 0 29 1 12
49 -7 19 -15 31 -18 25z"/>
<path d="M1784 646 c-9 -38 4 -66 31 -66 27 0 40 28 31 66 -5 17 -13 24 -31
24 -18 0 -26 -7 -31 -24z"/>
<path d="M1290 355 c0 -16 6 -25 15 -25 9 0 15 9 15 25 0 16 -6 25 -15 25 -9
0 -15 -9 -15 -25z"/>
<path d="M2438 323 c7 -3 16 -2 19 1 4 3 -2 6 -13 5 -11 0 -14 -3 -6 -6z"/>
<path d="M898 353 c7 -3 16 -2 19 1 4 3 -2 6 -13 5 -11 0 -14 -3 -6 -6z"/>
<path d="M1708 323 c7 -3 16 -2 19 1 4 3 -2 6 -13 5 -11 0 -14 -3 -6 -6z"/>
<path d="M1935 350 c-4 -6 -3 -16 3 -22 6 -6 12 -6 17 2 4 6 3 16 -3 22 -6 6
-12 6 -17 -2z"/>
<path d="M2345 330 c-3 -5 -1 -10 4 -10 6 0 11 5 11 10 0 6 -2 10 -4 10 -3 0
-8 -4 -11 -10z"/>
<path d="M2628 323 c7 -3 16 -2 19 1 4 3 -2 6 -13 5 -11 0 -14 -3 -6 -6z"/>
</g>
</svg>
